<svg width="236" height="20" viewBox="0 0 236 20" fill="none" xmlns="http://www.w3.org/2000/svg">
<path d="M54 3.90594L55.2601 6.93547L55.6119 7.78141L56.5252 7.85463L59.7958 8.11683L57.3039 10.2514L56.6081 10.8474L56.8207 11.7386L57.582 14.9302L54.7819 13.2199L54 12.7423L53.2181 13.2199L50.418 14.9302L51.1793 11.7386L51.3919 10.8474L50.6961 10.2514L48.2042 8.11683L51.4748 7.85463L52.3881 7.78141L52.7399 6.93547L54 3.90594Z" fill="#F1C644" stroke="#F1C644" stroke-width="3"/>
<path d="M81 3.90594L82.2601 6.93547L82.6119 7.78141L83.5252 7.85463L86.7958 8.11683L84.3039 10.2514L83.6081 10.8474L83.8207 11.7386L84.582 14.9302L81.7819 13.2199L81 12.7423L80.2181 13.2199L77.418 14.9302L78.1793 11.7386L78.3919 10.8474L77.6961 10.2514L75.2042 8.11683L78.4748 7.85463L79.3881 7.78141L79.7399 6.93547L81 3.90594Z" fill="#F1C644" stroke="#F1C644" stroke-width="3"/>
<path d="M108 3.90594L109.26 6.93547L109.612 7.78141L110.525 7.85463L113.796 8.11683L111.304 10.2514L110.608 10.8474L110.821 11.7386L111.582 14.9302L108.782 13.2199L108 12.7423L107.218 13.2199L104.418 14.9302L105.179 11.7386L105.392 10.8474L104.696 10.2514L102.204 8.11683L105.475 7.85463L106.388 7.78141L106.74 6.93547L108 3.90594Z" fill="#F1C644" stroke="#F1C644" stroke-width="3"/>
<path d="M135 3.90594L136.26 6.93547L136.612 7.78141L137.525 7.85463L140.796 8.11683L138.304 10.2514L137.608 10.8474L137.821 11.7386L138.582 14.9302L135.782 13.2199L135 12.7423L134.218 13.2199L131.418 14.9302L132.179 11.7386L132.392 10.8474L131.696 10.2514L129.204 8.11683L132.475 7.85463L133.388 7.78141L133.74 6.93547L135 3.90594Z" fill="#F1C644" stroke="#F1C644" stroke-width="3"/>
<path d="M162 3.90594L163.26 6.93547L163.612 7.78141L164.525 7.85463L167.796 8.11683L165.304 10.2514L164.608 10.8474L164.821 11.7386L165.582 14.9302L162.782 13.2199L162 12.7423L161.218 13.2199L158.418 14.9302L159.179 11.7386L159.392 10.8474L158.696 10.2514L156.204 8.11683L159.475 7.85463L160.388 7.78141L160.74 6.93547L162 3.90594Z" fill="#F1C644" stroke="#F1C644" stroke-width="3"/>
<path d="M181.1 14.69C180.727 14.0033 180.453 13.3 180.28 12.58C180.107 11.8533 180.02 11.1167 180.02 10.37C180.02 9.87 180.057 9.37667 180.13 8.89C180.21 8.40333 180.33 7.92333 180.49 7.45C180.65 6.97667 180.853 6.51 181.1 6.05C181.147 5.96333 181.21 5.91 181.29 5.89C181.377 5.87 181.457 5.87667 181.53 5.91C181.61 5.93667 181.667 5.99333 181.7 6.08C181.733 6.16 181.727 6.26333 181.68 6.39C181.507 6.83 181.36 7.27 181.24 7.71C181.12 8.15 181.03 8.59 180.97 9.03C180.91 9.47 180.88 9.91667 180.88 10.37C180.88 10.8233 180.91 11.27 180.97 11.71C181.037 12.15 181.13 12.5867 181.25 13.02C181.37 13.46 181.513 13.9033 181.68 14.35C181.733 14.4767 181.74 14.58 181.7 14.66C181.667 14.7467 181.61 14.8033 181.53 14.83C181.457 14.8633 181.377 14.87 181.29 14.85C181.21 14.83 181.147 14.7767 181.1 14.69ZM185.414 13.09C184.86 13.09 184.387 12.9567 183.994 12.69C183.607 12.4167 183.314 12.0233 183.114 11.51C182.914 10.9967 182.814 10.3767 182.814 9.65C182.814 9.03667 182.877 8.49667 183.004 8.03C183.13 7.56333 183.317 7.17 183.564 6.85C183.81 6.52333 184.11 6.27667 184.464 6.11C184.817 5.94333 185.217 5.86 185.664 5.86C185.97 5.86 186.284 5.92 186.604 6.04C186.93 6.16 187.217 6.33 187.464 6.55C187.537 6.60333 187.58 6.67 187.594 6.75C187.614 6.82333 187.614 6.89667 187.594 6.97C187.574 7.03667 187.537 7.09333 187.484 7.14C187.437 7.18667 187.377 7.21333 187.304 7.22C187.23 7.22 187.154 7.19 187.074 7.13C186.847 6.93667 186.614 6.8 186.374 6.72C186.134 6.63333 185.89 6.59 185.644 6.59C185.21 6.59 184.84 6.69667 184.534 6.91C184.234 7.12333 184.004 7.44667 183.844 7.88C183.69 8.30667 183.614 8.84333 183.614 9.49V10.42H183.524C183.564 10.04 183.674 9.71333 183.854 9.44C184.04 9.16 184.277 8.94667 184.564 8.8C184.85 8.65333 185.174 8.58 185.534 8.58C185.947 8.58 186.314 8.67333 186.634 8.86C186.954 9.04667 187.204 9.31 187.384 9.65C187.564 9.98333 187.654 10.3667 187.654 10.8C187.654 11.24 187.56 11.6333 187.374 11.98C187.187 12.3267 186.924 12.6 186.584 12.8C186.244 12.9933 185.854 13.09 185.414 13.09ZM185.364 12.39C185.657 12.39 185.917 12.3267 186.144 12.2C186.37 12.0667 186.547 11.8833 186.674 11.65C186.8 11.41 186.864 11.1367 186.864 10.83C186.864 10.5233 186.8 10.2533 186.674 10.02C186.547 9.78667 186.37 9.60333 186.144 9.47C185.917 9.33667 185.657 9.27 185.364 9.27C185.07 9.27 184.81 9.33667 184.584 9.47C184.357 9.60333 184.18 9.78667 184.054 10.02C183.927 10.2533 183.864 10.5233 183.864 10.83C183.864 11.1367 183.927 11.41 184.054 11.65C184.18 11.8833 184.357 12.0667 184.584 12.2C184.81 12.3267 185.07 12.39 185.364 12.39ZM189.25 14.69C189.197 14.7767 189.13 14.83 189.05 14.85C188.97 14.87 188.89 14.8633 188.81 14.83C188.73 14.7967 188.673 14.74 188.64 14.66C188.607 14.58 188.613 14.4767 188.66 14.35C188.84 13.9033 188.987 13.46 189.1 13.02C189.22 12.5867 189.31 12.15 189.37 11.71C189.43 11.27 189.46 10.8233 189.46 10.37C189.46 9.91667 189.427 9.47 189.36 9.03C189.3 8.59 189.21 8.15333 189.09 7.72C188.977 7.28 188.833 6.83667 188.66 6.39C188.613 6.26333 188.607 6.16 188.64 6.08C188.68 5.99333 188.737 5.93667 188.81 5.91C188.883 5.87667 188.96 5.87 189.04 5.89C189.127 5.91 189.197 5.96333 189.25 6.05C189.617 6.73 189.887 7.43333 190.06 8.16C190.233 8.88667 190.32 9.62333 190.32 10.37C190.32 10.87 190.28 11.3667 190.2 11.86C190.127 12.3467 190.01 12.8267 189.85 13.3C189.697 13.7733 189.497 14.2367 189.25 14.69Z" fill="#A0A0A0"/>
</svg>